<svg width="85" height="73" viewBox="0 0 85 73" fill="none" xmlns="http://www.w3.org/2000/svg">
    <path d="M31.1198 0.875C25.499 0.875 21.7188 6.21875 21.7188 11.7604C21.7188 17.3021 25.499 22.6458 31.1198 22.6458C36.7406 22.6458 40.5208 17.3021 40.5208 11.7604C40.5208 6.21875 36.7406 0.875 31.1198 0.875ZM0.9375 23.6354C0.9375 18.0938 4.71771 12.75 10.3385 12.75C15.9594 12.75 19.7396 18.0938 19.7396 23.6354C19.7396 29.1771 15.9594 34.5208 10.3385 34.5208C4.71771 34.5208 0.9375 29.1771 0.9375 23.6354ZM45.4688 11.7604C45.4688 6.21875 49.249 0.875 54.8698 0.875C60.4906 0.875 64.2708 6.21875 64.2708 11.7604C64.2708 17.3021 60.4906 22.6458 54.8698 22.6458C49.249 22.6458 45.4688 17.3021 45.4688 11.7604ZM65.2604 23.6354C65.2604 18.0938 69.0406 12.75 74.6615 12.75C80.2823 12.75 84.0625 18.0938 84.0625 23.6354C84.0625 29.1771 80.2823 34.5208 74.6615 34.5208C69.0406 34.5208 65.2604 29.1771 65.2604 23.6354ZM14.7917 56.2917C14.7917 40.9888 27.1971 28.5833 42.5 28.5833C57.8029 28.5833 70.2083 40.9888 70.2083 56.2917C70.2083 56.6281 70.2017 56.9633 70.1885 57.2971C70.0104 62.3459 67.2633 66.1321 63.5524 68.5665C59.8949 70.9672 55.232 72.125 50.7511 72.125H34.2489C29.768 72.125 25.1051 70.9672 21.4476 68.5665C17.7367 66.1321 14.9896 62.3459 14.8095 57.2971C14.7976 56.9633 14.7917 56.6281 14.7917 56.2917Z" fill="#579B52"/>
</svg>
