<svg width="40" height="40" viewBox="0 0 40 40" fill="none" xmlns="http://www.w3.org/2000/svg">
<rect x="0.5" y="0.5" width="39" height="39" rx="3.5" fill="#16171B"/>
<rect x="0.5" y="0.5" width="39" height="39" rx="3.5" stroke="#D9D9D9"/>
<path d="M32.1094 20.0732C32.1094 13.3838 26.6895 7.96387 20 7.96387C13.3105 7.96387 7.89062 13.3838 7.89062 20.0732C7.89062 26.1172 12.3188 31.127 18.1079 32.0361V23.5737H15.0317V20.0732H18.1079V17.4053C18.1079 14.3706 19.9146 12.6943 22.6816 12.6943C24.0068 12.6943 25.3926 12.9307 25.3926 12.9307V15.9092H23.8652C22.3613 15.9092 21.8921 16.8428 21.8921 17.8003V20.0732H25.2505L24.7134 23.5737H21.8921V32.0361C27.6812 31.127 32.1094 26.1172 32.1094 20.0732Z" fill="#ECF5FC"/>
</svg>
