<svg width="88" height="62" viewBox="0 0 88 62" fill="none" xmlns="http://www.w3.org/2000/svg">
<path d="M13.2 26.5714C18.0538 26.5714 22 22.5996 22 17.7143C22 12.829 18.0538 8.85714 13.2 8.85714C8.34625 8.85714 4.4 12.829 4.4 17.7143C4.4 22.5996 8.34625 26.5714 13.2 26.5714ZM74.8 26.5714C79.6538 26.5714 83.6 22.5996 83.6 17.7143C83.6 12.829 79.6538 8.85714 74.8 8.85714C69.9463 8.85714 66 12.829 66 17.7143C66 22.5996 69.9463 26.5714 74.8 26.5714ZM79.2 31H70.4C67.98 31 65.7937 31.9826 64.1988 33.5741C69.74 36.6326 73.6725 42.1545 74.525 48.7143H83.6C86.0338 48.7143 88 46.7353 88 44.2857V39.8571C88 34.9719 84.0537 31 79.2 31ZM44 31C52.5112 31 59.4 24.0665 59.4 15.5C59.4 6.93348 52.5112 0 44 0C35.4888 0 28.6 6.93348 28.6 15.5C28.6 24.0665 35.4888 31 44 31ZM54.56 35.4286H53.4188C50.5588 36.8125 47.3825 37.6429 44 37.6429C40.6175 37.6429 37.455 36.8125 34.5812 35.4286H33.44C24.695 35.4286 17.6 42.5696 17.6 51.3714V55.3571C17.6 59.0246 20.5562 62 24.2 62H63.8C67.4437 62 70.4 59.0246 70.4 55.3571V51.3714C70.4 42.5696 63.305 35.4286 54.56 35.4286ZM23.8013 33.5741C22.2063 31.9826 20.02 31 17.6 31H8.8C3.94625 31 0 34.9719 0 39.8571V44.2857C0 46.7353 1.96625 48.7143 4.4 48.7143H13.4613C14.3275 42.1545 18.26 36.6326 23.8013 33.5741Z" fill="#579B52"/>
</svg>
