<svg width="40" height="40" viewBox="0 0 40 40" fill="none" xmlns="http://www.w3.org/2000/svg">
<rect x="0.5" y="0.5" width="39" height="39" rx="3.5" fill="#16171B"/>
<rect x="0.5" y="0.5" width="39" height="39" rx="3.5" stroke="#D9D9D9"/>
<path d="M20.0024 14.3894C16.897 14.3894 14.3921 16.8943 14.3921 19.9998C14.3921 23.1052 16.897 25.6101 20.0024 25.6101C23.1079 25.6101 25.6128 23.1052 25.6128 19.9998C25.6128 16.8943 23.1079 14.3894 20.0024 14.3894ZM20.0024 23.6472C17.9956 23.6472 16.355 22.0115 16.355 19.9998C16.355 17.988 17.9907 16.3523 20.0024 16.3523C22.0142 16.3523 23.6499 17.988 23.6499 19.9998C23.6499 22.0115 22.0093 23.6472 20.0024 23.6472ZM27.1509 14.1599C27.1509 14.8875 26.5649 15.4685 25.8423 15.4685C25.1147 15.4685 24.5337 14.8826 24.5337 14.1599C24.5337 13.4373 25.1196 12.8513 25.8423 12.8513C26.5649 12.8513 27.1509 13.4373 27.1509 14.1599ZM30.8667 15.488C30.7837 13.7351 30.3833 12.1824 29.0991 10.9031C27.8198 9.62378 26.2671 9.22339 24.5142 9.1355C22.7075 9.03296 17.2925 9.03296 15.4858 9.1355C13.7378 9.21851 12.1851 9.6189 10.9009 10.8982C9.6167 12.1775 9.22119 13.7302 9.1333 15.4832C9.03076 17.2898 9.03076 22.7048 9.1333 24.5115C9.21631 26.2644 9.6167 27.8171 10.9009 29.0964C12.1851 30.3757 13.7329 30.7761 15.4858 30.864C17.2925 30.9666 22.7075 30.9666 24.5142 30.864C26.2671 30.781 27.8198 30.3806 29.0991 29.0964C30.3784 27.8171 30.7788 26.2644 30.8667 24.5115C30.9692 22.7048 30.9692 17.2947 30.8667 15.488ZM28.5327 26.45C28.1519 27.407 27.4146 28.1443 26.4526 28.53C25.0122 29.1013 21.5942 28.9695 20.0024 28.9695C18.4106 28.9695 14.9878 29.0964 13.5522 28.53C12.5952 28.1492 11.8579 27.4119 11.4722 26.45C10.9009 25.0095 11.0327 21.5916 11.0327 19.9998C11.0327 18.408 10.9058 14.9851 11.4722 13.5496C11.853 12.5925 12.5903 11.8552 13.5522 11.4695C14.9927 10.8982 18.4106 11.03 20.0024 11.03C21.5942 11.03 25.0171 10.9031 26.4526 11.4695C27.4097 11.8503 28.147 12.5876 28.5327 13.5496C29.104 14.99 28.9722 18.408 28.9722 19.9998C28.9722 21.5916 29.104 25.0144 28.5327 26.45Z" fill="#ECF5FC"/>
</svg>
