<svg width="40" height="40" viewBox="0 0 40 40" fill="none" xmlns="http://www.w3.org/2000/svg">
<rect x="0.5" y="0.5" width="39" height="39" rx="3.5" fill="#16171B"/>
<rect x="0.5" y="0.5" width="39" height="39" rx="3.5" stroke="#D9D9D9"/>
<path d="M13.959 30.937H9.42383V16.3325H13.959V30.937ZM11.689 14.3403C10.2388 14.3403 9.0625 13.1392 9.0625 11.689C9.0625 10.9924 9.33922 10.3243 9.83177 9.83177C10.3243 9.33922 10.9924 9.0625 11.689 9.0625C12.3855 9.0625 13.0536 9.33922 13.5462 9.83177C14.0387 10.3243 14.3154 10.9924 14.3154 11.689C14.3154 13.1392 13.1387 14.3403 11.689 14.3403ZM30.9326 30.937H26.4072V23.8276C26.4072 22.1333 26.373 19.9604 24.0493 19.9604C21.6914 19.9604 21.3301 21.8013 21.3301 23.7056V30.937H16.7998V16.3325H21.1494V18.3247H21.2129C21.8184 17.1772 23.2974 15.9663 25.5039 15.9663C30.0938 15.9663 30.9375 18.9888 30.9375 22.9146V30.937H30.9326Z" fill="#ECF5FC"/>
</svg>
