<svg width="53" height="67" viewBox="0 0 53 67" fill="none" xmlns="http://www.w3.org/2000/svg">
<path fill-rule="evenodd" clip-rule="evenodd" d="M24.0554 66.0891C24.0554 66.0891 0 46.0136 0 26.2597C0 19.2952 2.79196 12.6159 7.76167 7.69129C12.7314 2.76664 19.4718 0 26.5 0C33.5282 0 40.2686 2.76664 45.2383 7.69129C50.208 12.6159 53 19.2952 53 26.2597C53 46.0136 28.9446 66.0891 28.9446 66.0891C27.6064 67.3102 25.4036 67.2971 24.0554 66.0891ZM26.5 37.7483C28.0225 37.7483 29.5301 37.4512 30.9367 36.8738C32.3434 36.2964 33.6214 35.4502 34.698 34.3834C35.7746 33.3166 36.6286 32.0501 37.2112 30.6562C37.7939 29.2623 38.0938 27.7684 38.0938 26.2597C38.0938 24.751 37.7939 23.2571 37.2112 21.8632C36.6286 20.4693 35.7746 19.2028 34.698 18.136C33.6214 17.0692 32.3434 16.223 30.9367 15.6456C29.5301 15.0682 28.0225 14.7711 26.5 14.7711C23.4251 14.7711 20.4762 15.9815 18.302 18.136C16.1277 20.2906 14.9062 23.2127 14.9062 26.2597C14.9062 29.3067 16.1277 32.2288 18.302 34.3834C20.4762 36.5379 23.4251 37.7483 26.5 37.7483Z" fill="#FF5151"/>
</svg>
