<svg width="19" height="24" viewBox="0 0 19 24" fill="none" xmlns="http://www.w3.org/2000/svg">
<path d="M10.1381 23.4607C12.5491 20.4435 18.0477 13.1309 18.0477 9.02335C18.0477 4.04171 14.006 0 9.02433 0C4.04269 0 0.000976562 4.04171 0.000976562 9.02335C0.000976562 13.1309 5.49958 20.4435 7.91051 23.4607C8.48857 24.1798 9.56009 24.1798 10.1381 23.4607ZM9.02433 6.01557C9.82204 6.01557 10.5871 6.33246 11.1512 6.89653C11.7152 7.4606 12.0321 8.22564 12.0321 9.02335C12.0321 9.82106 11.7152 10.5861 11.1512 11.1502C10.5871 11.7142 9.82204 12.0311 9.02433 12.0311C8.22661 12.0311 7.46157 11.7142 6.8975 11.1502C6.33343 10.5861 6.01654 9.82106 6.01654 9.02335C6.01654 8.22564 6.33343 7.4606 6.8975 6.89653C7.46157 6.33246 8.22661 6.01557 9.02433 6.01557Z" fill="white"/>
</svg>
