<svg width="26" height="26" viewBox="0 0 26 26" fill="none" xmlns="http://www.w3.org/2000/svg">
    <g clipPath="url(#clip0_14_612)">
        <path d="M14.9444 2.65278C12.8611 1.54167 10.2917 2.23611 9.11111 4.31944L7.58334 6.95833L6.19445 6.19444C6.19445 6.05556 6.05556 6.05556 5.98611 6.05556C5.63889 6.05556 5.36111 6.33333 5.36111 6.68055V11.6806C5.36111 11.8889 5.43056 12.0972 5.63889 12.2361C5.70834 12.3056 5.84723 12.3056 5.91667 12.3056C6.05556 12.3056 6.125 12.3056 6.19445 12.2361L10.5694 9.73611C10.7778 9.59722 10.8472 9.45833 10.8472 9.18056C10.8472 8.97222 10.7083 8.76389 10.5694 8.625L8.83334 7.65278L10.3611 5.01389C10.6389 4.52778 11.0556 4.11111 11.5417 3.83333C12.9306 3.06944 14.6667 3.625 15.4306 5.01389C15.6389 5.36111 16.0556 5.43056 16.4028 5.29167C16.75 5.08333 16.8194 4.66667 16.6806 4.31944C16.1944 3.625 15.6389 3 14.9444 2.65278Z" fill="white"/>
        <path d="M22.8611 15.1528L20.7778 11.4722L22.375 10.5694C22.5833 10.4306 22.6528 10.2917 22.6528 10.0139C22.6528 9.80556 22.5139 9.59722 22.375 9.45833L18.0694 6.95833C18 6.88889 17.8611 6.88889 17.7917 6.88889C17.4444 6.88889 17.1667 7.16667 17.1667 7.51389V12.5139C17.1667 12.7222 17.3056 12.9306 17.4444 13.0694C17.5139 13.1389 17.6528 13.1389 17.7222 13.1389C17.8611 13.1389 17.9306 13.0694 18 13.0694L19.5278 12.1667L21.6111 15.8472C22.0972 16.6806 22.0972 17.7917 21.6111 18.625C21.125 19.4583 20.2917 19.9444 19.3889 19.9444H18.7639C18.3472 19.9444 18.0694 20.2222 18.0694 20.6389C18.0694 21.0556 18.3472 21.3333 18.7639 21.3333H19.3889C20.8472 21.3333 22.1667 20.5694 22.8611 19.25C23.5556 18.0694 23.5556 16.4722 22.8611 15.1528Z" fill="white"/>
        <path d="M15.5694 20.2222L11.2639 17.7222C11.1944 17.6528 11.0555 17.6528 10.9861 17.6528C10.6389 17.6528 10.3611 17.9306 10.3611 18.2778V20.0833H6.95833C5.91666 20.0833 4.94444 19.5278 4.45833 18.625C3.90277 17.6528 3.90277 16.4722 4.45833 15.5C4.66666 15.1528 4.52777 14.7361 4.18055 14.5278C3.83333 14.3194 3.41666 14.4583 3.20833 14.8056C2.37499 16.1944 2.37499 17.9306 3.20833 19.3194C3.97222 20.6389 5.36111 21.4722 6.95833 21.4722H10.2917V23.2778C10.2917 23.4861 10.4305 23.6944 10.5694 23.8333C10.6389 23.9028 10.7778 23.9028 10.8472 23.9028C10.9167 23.9028 11.0555 23.9028 11.125 23.8333L15.5 21.3333C15.7083 21.1944 15.7778 21.0556 15.7778 20.7778C15.8472 20.5 15.7083 20.2917 15.5694 20.2222Z" fill="white"/>
    </g>
    <defs>
        <clipPath id="clip0_14_612">
            <rect width="25" height="25" fill="white" transform="translate(0.5 0.5)"/>
        </clipPath>
    </defs>
</svg>