<svg width="81" height="79" viewBox="0 0 81 79" fill="none" xmlns="http://www.w3.org/2000/svg">
    <path d="M79.6406 48.9689L69.6405 66.1239C67.6805 69.5311 64.0405 71.3139 60.3605 71.0762H52.3604V79L42.3603 61.1715L52.3604 43.343V51.2668H63.6405L54.7604 36.0135L72.0806 26.1088L79.2806 38.4699C81.3606 41.5206 81.6406 45.6013 79.6406 48.9689ZM29.2002 0H49.2004C53.1204 0 56.5204 2.25827 58.1604 5.50702L62.1605 12.4007L69.0805 8.43882L58.5205 25.9107L37.9203 26.2673L44.8403 22.3054L39.2003 12.5988L30.3602 27.8521L13.0001 17.9473L20.2002 5.58626C21.8402 2.29789 25.2402 0 29.2002 0ZM12.5601 66.1635L2.56002 49.0085C0.600004 45.6409 0.880007 41.5998 2.92002 38.5491L6.92005 31.6951L0 27.7332L20.5602 28.0501L31.1602 45.5617L24.2402 41.5998L18.6001 51.2668H36.3603V71.0762H21.9602C20.0862 71.2106 18.2117 70.8214 16.55 69.9529C14.8882 69.0844 13.5059 67.7715 12.5601 66.1635Z" fill="#579B52"/>
</svg>
