<svg width="40" height="40" viewBox="0 0 40 40" fill="none" xmlns="http://www.w3.org/2000/svg">
<rect x="0.5" y="0.5" width="39" height="39" rx="3.5" fill="#16171B"/>
<rect x="0.5" y="0.5" width="39" height="39" rx="3.5" stroke="#D9D9D9"/>
<path d="M29.9302 14.9079C29.9461 15.13 29.9461 15.3521 29.9461 15.5742C29.9461 22.3476 24.7907 30.1522 15.3681 30.1522C12.4651 30.1522 9.76845 29.3114 7.50005 27.8521C7.9125 27.8997 8.30903 27.9155 8.73735 27.9155C11.1326 27.9155 13.3376 27.1065 15.0984 25.7265C12.8458 25.6789 10.9582 24.2036 10.3078 22.1731C10.625 22.2207 10.9423 22.2524 11.2754 22.2524C11.7354 22.2524 12.1955 22.189 12.6238 22.078C10.2761 21.602 8.51523 19.5399 8.51523 17.0494V16.986C9.19731 17.3667 9.99052 17.6046 10.8312 17.6363C9.45112 16.7163 8.54697 15.1458 8.54697 13.3692C8.54697 12.4174 8.80073 11.545 9.24492 10.7835C11.7671 13.8927 15.5584 15.9231 19.8096 16.1452C19.7303 15.7645 19.6827 15.368 19.6827 14.9714C19.6827 12.1478 21.967 9.84766 24.8064 9.84766C26.2817 9.84766 27.6142 10.4663 28.5501 11.4657C29.7081 11.2436 30.8185 10.8153 31.802 10.2284C31.4212 11.4181 30.6123 12.4175 29.5495 13.052C30.5806 12.941 31.5799 12.6554 32.4999 12.2588C31.8021 13.274 30.9296 14.1782 29.9302 14.9079Z" fill="#ECF5FC"/>
</svg>
