<svg width="40" height="40" viewBox="0 0 40 40" fill="none" xmlns="http://www.w3.org/2000/svg">
<rect x="0.5" y="0.5" width="39" height="39" rx="3.5" fill="#16171B"/>
<rect x="0.5" y="0.5" width="39" height="39" rx="3.5" stroke="#D9D9D9"/>
<path d="M31.3566 14.2743C31.0839 13.2478 30.2807 12.4394 29.2609 12.165C27.4124 11.6665 20 11.6665 20 11.6665C20 11.6665 12.5877 11.6665 10.7391 12.165C9.71927 12.4394 8.91606 13.2478 8.64344 14.2743C8.14813 16.1348 8.14813 20.0167 8.14813 20.0167C8.14813 20.0167 8.14813 23.8985 8.64344 25.7591C8.91606 26.7856 9.71927 27.5603 10.7391 27.8346C12.5877 28.3332 20 28.3332 20 28.3332C20 28.3332 27.4123 28.3332 29.2609 27.8346C30.2807 27.5603 31.0839 26.7856 31.3566 25.7591C31.8519 23.8985 31.8519 20.0167 31.8519 20.0167C31.8519 20.0167 31.8519 16.1348 31.3566 14.2743ZM17.5757 23.5411V16.4922L23.771 20.0168L17.5757 23.5411Z" fill="#ECF5FC"/>
</svg>
